<svg width="100" height="98" viewBox="0 0 100 98" fill="none" xmlns="http://www.w3.org/2000/svg">
<rect x="1.5" y="10.5" width="97" height="86" rx="8.5" fill="#112D4E" stroke="#112D4E" stroke-width="3"/>
<rect y="31" width="100" height="3" fill="white"/>
<rect x="44" y="40" width="12" height="12" rx="2" fill="white"/>
<mask id="path-4-inside-1_51_31" fill="white">
<rect x="20" width="12" height="20" rx="2"/>
</mask>
<rect x="20" width="12" height="20" rx="2" fill="white" stroke="#112D4E" stroke-width="6" mask="url(#path-4-inside-1_51_31)"/>
<mask id="path-5-inside-2_51_31" fill="white">
<rect x="68" width="12" height="20" rx="2"/>
</mask>
<rect x="68" width="12" height="20" rx="2" fill="white" stroke="#112D4E" stroke-width="6" mask="url(#path-5-inside-2_51_31)"/>
<rect x="44" y="58" width="12" height="11" rx="2" fill="white"/>
<rect x="44" y="75" width="12" height="12" rx="2" fill="white"/>
<rect x="62" y="58" width="12" height="11" rx="2" fill="white"/>
<rect x="80" y="58" width="12" height="11" rx="2" fill="white"/>
<rect x="62" y="75" width="12" height="12" rx="2" fill="white"/>
<rect x="26" y="58" width="12" height="11" rx="2" fill="white"/>
<rect x="8" y="58" width="12" height="11" rx="2" fill="white"/>
<rect x="8" y="75" width="12" height="12" rx="2" fill="white"/>
<rect x="26" y="75" width="12" height="12" rx="2" fill="white"/>
<rect x="62" y="40" width="12" height="12" rx="2" fill="white"/>
<rect x="80" y="40" width="12" height="12" rx="2" fill="white"/>
</svg>
